# xmcd
#
# Track frame offsets:
#	150
#	17445
#	38485
#	59342
#	81560
#	100590
#	119032
#	133122
#	152815
#	171255
#	193482
#	212300
#	231077
#	251725
#	268767
#	291292
#
# Disc length: 4185 seconds
#
# Revision: 1
# Processed by: cddbd v1.5.2PL0 Copyright (c) Steve Scherf et al.
# Submitted via: EZCDAudioConverter 7.1.5.1
#
DISCID=e9105710
DTITLE=王杰 - 从今开始
DYEAR=2000
DGENRE=
TTITLE0=伤心1999
TTITLE1=情却
TTITLE2=宿命的风
TTITLE3=你还没爱过我
TTITLE4=习惯你
TTITLE5=我想他
TTITLE6=Hello World 
TTITLE7=从今开始
TTITLE8=失温
TTITLE9=I Belive
TTITLE10=爱到末路
TTITLE11=一场游戏一场梦
TTITLE12=安妮
TTITLE13=永远相信爱情
TTITLE14=不要再问我
TTITLE15=结束
EXTD=
EXTT0=
EXTT1=
EXTT2=
EXTT3=
EXTT4=
EXTT5=
EXTT6=
EXTT7=
EXTT8=
EXTT9=
EXTT10=
EXTT11=
EXTT12=
EXTT13=
EXTT14=
EXTT15=
PLAYORDER=
